<svg xmlns="http://www.w3.org/2000/svg" width="1600" height="900" viewBox="0 0 1600 900">
  <defs>
    <linearGradient id="bg" x1="0" y1="0" x2="0" y2="1">
      <stop offset="0%" stop-color="#0A1F3C"/>
      <stop offset="55%" stop-color="#0F3057"/>
      <stop offset="100%" stop-color="#0B3C6D"/>
    </linearGradient>
    <linearGradient id="fish" x1="0" y1="0" x2="1" y2="1">
      <stop offset="0%" stop-color="#9ed8ff" stop-opacity="0.35"/>
      <stop offset="100%" stop-color="#2ea8ff" stop-opacity="0.15"/>
    </linearGradient>
  </defs>
  <rect width="1600" height="900" fill="url(#bg)"/>
  <g fill="url(#fish)">
    <path d="M120 260c70-60 200-70 300-10 50 30 80 40 130 40-50 10-80 40-130 40-100 60-230 50-300-10 30-5 60-25 80-60-20-35-50-55-80-60z"/>
    <path d="M980 200c80-55 200-60 290 0 40 25 70 35 120 35-45 10-80 35-120 35-90 60-210 55-290 0 30-5 55-20 75-45-20-25-45-40-75-45z"/>
    <path d="M320 620c60-45 170-50 250 0 35 20 60 30 100 30-40 10-65 30-100 30-80 50-190 45-250 0 25-5 45-15 60-35-15-20-35-30-60-35z"/>
    <path d="M1120 640c70-50 180-55 260 0 35 22 60 30 95 30-35 10-60 30-95 30-80 50-190 45-260 0 25-5 45-15 65-38-18-22-40-32-65-38z"/>
  </g>
  <g fill="none" stroke="#86c7ff" stroke-opacity="0.2">
    <path d="M0 720c120-40 240-40 360 0s240 40 360 0 240-40 360 0 240 40 360 0" stroke-width="2"/>
    <path d="M0 780c120-30 240-30 360 0s240 30 360 0 240-30 360 0 240 30 360 0" stroke-width="1.5"/>
  </g>
</svg>
